ModelForces
version=1
nRows=4
nColumns=155
inDegrees=no

This file contains the forces exerted on a model during a simulation.

A force is a generalized force, meaning that it can be either a force (N) or a torque (Nm).

Units are S.I. units (second, meters, Newtons, ...)
Angles are in degrees.

endheader
time	glut_med1_r	glut_med2_r	glut_med3_r	glut_min1_r	glut_min2_r	glut_min3_r	semimem_r	semiten_r	bifemlh_r	bifemsh_r	sar_r	add_long_r	add_brev_r	add_mag1_r	add_mag2_r	add_mag3_r	tfl_r	pect_r	grac_r	glut_max1_r	glut_max2_r	glut_max3_r	iliacus_r	psoas_r	quad_fem_r	gem_r	peri_r	rect_fem_r	vas_med_r	vas_int_r	vas_lat_r	med_gas_r	lat_gas_r	soleus_r	tib_post_r	flex_dig_r	flex_hal_r	tib_ant_r	per_brev_r	per_long_r	per_tert_r	ext_dig_r	ext_hal_r	glut_med1_l	glut_med2_l	glut_med3_l	glut_min1_l	glut_min2_l	glut_min3_l	semimem_l	semiten_l	bifemlh_l	bifemsh_l	sar_l	add_long_l	add_brev_l	add_mag1_l	add_mag2_l	add_mag3_l	tfl_l	pect_l	grac_l	glut_max1_l	glut_max2_l	glut_max3_l	iliacus_l	psoas_l	quad_fem_l	gem_l	peri_l	rect_fem_l	vas_med_l	vas_int_l	vas_lat_l	med_gas_l	lat_gas_l	soleus_l	tib_post_l	flex_dig_l	flex_hal_l	tib_ant_l	per_brev_l	per_long_l	per_tert_l	ext_dig_l	ext_hal_l	ercspn_r	ercspn_l	intobl_r	intobl_l	extobl_r	extobl_l	femur_lat_meniscii_r.femur_lat_r.force.X	femur_lat_meniscii_r.femur_lat_r.force.Y	femur_lat_meniscii_r.femur_lat_r.force.Z	femur_lat_meniscii_r.femur_lat_r.torque.X	femur_lat_meniscii_r.femur_lat_r.torque.Y	femur_lat_meniscii_r.femur_lat_r.torque.Z	femur_lat_meniscii_r.meniscus_lat_r.force.X	femur_lat_meniscii_r.meniscus_lat_r.force.Y	femur_lat_meniscii_r.meniscus_lat_r.force.Z	femur_lat_meniscii_r.meniscus_lat_r.torque.X	femur_lat_meniscii_r.meniscus_lat_r.torque.Y	femur_lat_meniscii_r.meniscus_lat_r.torque.Z	femur_med_meniscii_r.femur_med_r.force.X	femur_med_meniscii_r.femur_med_r.force.Y	femur_med_meniscii_r.femur_med_r.force.Z	femur_med_meniscii_r.femur_med_r.torque.X	femur_med_meniscii_r.femur_med_r.torque.Y	femur_med_meniscii_r.femur_med_r.torque.Z	femur_med_meniscii_r.meniscus_med_r.force.X	femur_med_meniscii_r.meniscus_med_r.force.Y	femur_med_meniscii_r.meniscus_med_r.force.Z	femur_med_meniscii_r.meniscus_med_r.torque.X	femur_med_meniscii_r.meniscus_med_r.torque.Y	femur_med_meniscii_r.meniscus_med_r.torque.Z	femur_med_tibia_r.tibia_upper_r.force.X	femur_med_tibia_r.tibia_upper_r.force.Y	femur_med_tibia_r.tibia_upper_r.force.Z	femur_med_tibia_r.tibia_upper_r.torque.X	femur_med_tibia_r.tibia_upper_r.torque.Y	femur_med_tibia_r.tibia_upper_r.torque.Z	femur_med_tibia_r.femur_med_r.force.X	femur_med_tibia_r.femur_med_r.force.Y	femur_med_tibia_r.femur_med_r.force.Z	femur_med_tibia_r.femur_med_r.torque.X	femur_med_tibia_r.femur_med_r.torque.Y	femur_med_tibia_r.femur_med_r.torque.Z	femur_lat_tibia_r.tibia_upper_r.force.X	femur_lat_tibia_r.tibia_upper_r.force.Y	femur_lat_tibia_r.tibia_upper_r.force.Z	femur_lat_tibia_r.tibia_upper_r.torque.X	femur_lat_tibia_r.tibia_upper_r.torque.Y	femur_lat_tibia_r.tibia_upper_r.torque.Z	femur_lat_tibia_r.femur_lat_r.force.X	femur_lat_tibia_r.femur_lat_r.force.Y	femur_lat_tibia_r.femur_lat_r.force.Z	femur_lat_tibia_r.femur_lat_r.torque.X	femur_lat_tibia_r.femur_lat_r.torque.Y	femur_lat_tibia_r.femur_lat_r.torque.Z	aACL_R	pACL_R	aPCL_R	pPCL_R	aMCL_R	mMCL_R	pMCL_R	aLCL_R	mLCL_R	pLCL_R	aPCL_L	pPCL_L	aMCL_L	aLCL_L
      0.20870376	      9.73842394	      7.16618066	      7.69326232	      3.32975498	      3.90725999	      4.11731076	      0.00000000	    167.84093974	    169.14331828	    327.47225740	    124.80981318	      7.11949622	      5.17508120	      3.68616901	      3.11617272	      5.18595021	      3.09898715	      2.80769970	     95.06283407	      4.62493695	      7.03308253	      5.27208419	     25.38085865	     16.06114277	      4.56412810	      3.29960881	      5.58549392	    108.36809895	     40.57864909	     30.52277793	     55.22810872	      0.00000000	      0.00000000	      0.00000000	      0.00000000	      0.00000000	      0.00000000	     34.04125125	      2.62284378	      4.78251151	     24.36913239	     50.59637038	     11.50913965	      9.73842394	      7.16618066	      7.69326232	      3.32975498	      3.90725999	      4.11731076	     10.57124153	      5.25654119	     10.28960847	      9.08288793	      1.90117873	      7.11949622	      5.17508120	      3.68616901	      3.11617272	      5.18595021	      4.83919190	      2.80769970	      1.95759604	      4.62493695	      7.03308253	      5.27208419	     25.38085865	     16.06114277	      4.56412810	      3.29960881	      5.58549392	     14.24082159	      0.00000000	      0.00000000	      0.00000000	     19.37165194	      9.05074942	     43.10360799	     47.32919854	      4.20228971	      3.66090496	     11.15761337	      5.90502893	     15.86522963	      2.48441008	      7.88271460	      2.52447134	     31.33157690	     31.33157690	     11.50129688	     11.50129688	     29.05454540	     29.05454540	    249.88725301	    163.04520935	     26.05216612	    -14.21996257	      5.91756143	     99.16753320	   -249.88725301	   -163.04520935	    -26.05216612	      4.29886339	     -7.15461720	      3.73570440	      0.50662351	     -0.00469598	     -0.10245832	      0.04083396	     -0.00829160	      0.20165460	     -0.50662351	      0.00469598	      0.10245832	     -0.00045483	      0.00997147	     -0.00206972	   -995.32867351	   -399.05283032	    296.89101735	     -8.82641390	     23.34439635	      1.97393723	    995.32867351	    399.05283032	   -296.89101735	    126.71459650	    -17.46572682	    401.14835727	    -89.00208269	    -43.57259477	    -25.31204001	      1.38190964	     -3.05983418	      0.40780671	     89.00208269	     43.57259477	     25.31204001	    -11.26675752	      2.18681316	     35.85208542	     -4.84099173	      0.00000000	    950.49684241	    594.98761983	     28.24789990	      0.00000000	      0.00000000	      0.00000000	      0.00000000	      0.00000000	      0.00000000	      0.00000000	      0.00000001	      0.00000000
      0.20929454	      9.72152234	      7.15463112	      7.68071000	      3.32461422	      3.90165936	      4.11016458	      0.00000000	    167.98617467	    169.69525215	    328.11097841	    124.70538933	      7.10788668	      5.16716571	      3.68027245	      3.11105935	      5.17667765	      3.08532248	      2.80333507	     95.00248200	      4.61746748	      7.02169391	      5.26340202	     25.35972069	     16.03709963	      4.55692650	      3.29614289	      5.57628065	    110.96576134	     40.64788139	     31.86485888	     55.35538712	      0.00000000	      0.00000000	      0.00000000	      0.00000000	      0.00000000	      0.00000000	     33.91678419	      2.62703448	      4.82230530	     24.27854400	     50.28293230	     11.42883193	      9.72152234	      7.15463112	      7.68071000	      3.32461422	      3.90165936	      4.11016458	     10.58213690	      5.24747171	     10.26996515	      9.06854287	      1.89825722	      7.10788668	      5.16716571	      3.68027245	      3.11105935	      5.17667765	      4.83345345	      2.80333507	      1.95453470	      4.61746748	      7.02169391	      5.26340202	     25.35972069	     16.03709963	      4.55692650	      3.29614289	      5.57628065	     14.21350138	      0.00000000	      0.00000000	      0.00000000	     19.34341099	      9.03673332	     43.01928107	     47.29221226	      4.18453663	      3.64503192	     11.13687933	      5.89324331	     15.84097576	      2.48070019	      7.87443258	      2.52203874	     31.28309424	     31.28309424	     11.48198508	     11.48198508	     29.03713391	     29.03713391	    250.32215234	    163.44408100	     25.30892112	    -13.92382850	      5.91721342	     99.31577614	   -250.32215234	   -163.44408100	    -25.30892112	      4.29698721	     -7.14169298	      3.80776503	      0.36425540	     -0.01798739	     -0.08563338	      0.03381130	     -0.00588131	      0.14499343	     -0.36425540	      0.01798739	      0.08563338	     -0.00008366	      0.00740969	     -0.00184853	   -990.63745288	   -393.33623075	    297.19026065	     -8.68449315	     23.27401989	      2.04198062	    990.63745288	    393.33623075	   -297.19026065	    126.71995169	    -17.37937011	    399.21250554	   -100.75517228	    -48.61418224	    -28.49762275	      1.54308667	     -3.46382301	      0.45703705	    100.75517228	     48.61418224	     28.49762275	    -12.67516240	      2.47602285	     40.58622172	     -4.99290190	      0.00000000	    955.01932252	    598.57233145	     27.92391253	      0.00000000	      0.00000000	      0.00000000	      0.00000000	      0.00000000	      0.00000000	      0.00000000	      0.00000001	      0.00000000
      0.20988533	      9.70475130	      7.14317151	      7.66825563	      3.31951318	      3.89610227	      4.10307433	      0.00000000	    168.10161737	    170.25151632	    328.75131907	    124.57977421	      7.09636772	      5.15931126	      3.67442071	      3.10598599	      5.16747771	      3.07247295	      2.79900422	     94.92184526	      4.61005634	      7.01039425	      5.25478780	     25.33874880	     16.01324645	      4.54978078	      3.29270447	      5.56709329	    118.29339286	     40.70621668	     28.76458092	     55.49700311	      0.00000000	      0.00000000	      0.00000000	      0.00000000	      0.00000000	      0.00000000	     33.79869971	      2.62691516	      4.85718169	     24.18452218	     49.98204695	     11.35174933	      9.70475130	      7.14317151	      7.66825563	      3.31951318	      3.89610227	      4.10307433	     10.59195806	      5.23847326	     10.25046444	      9.05430917	      1.89535827	      7.09636772	      5.15931126	      3.67442071	      3.10598599	      5.16747771	      4.82775980	      2.79900422	      1.95149707	      4.61005634	      7.01039425	      5.25478780	     25.33874880	     16.01324645	      4.54978078	      3.29270447	      5.56709329	     14.18639046	      0.00000000	      0.00000000	      0.00000000	     19.31518211	      9.02273705	     42.93547077	     47.25549393	      4.16686990	      3.62928627	     11.11630297	      5.88154490	     15.81688432	      2.47701953	      7.86612427	      2.51958435	     31.23498636	     31.23498636	     11.46282435	     11.46282435	     29.01985944	     29.01985944	    250.63278711	    160.60282712	     24.52138596	    -13.52393041	      5.91810016	     99.45401786	   -250.63278711	   -160.60282712	    -24.52138596	      4.20202252	     -7.12855217	      3.75294503	      0.24990394	     -0.01943816	     -0.06555338	      0.02577601	     -0.00398954	      0.09948947	     -0.24990394	      0.01943816	      0.06555338	      0.00003766	      0.00522073	     -0.00144715	   -985.24484786	   -387.61330836	    298.46466416	     -8.56347085	     23.23303027	      2.11668935	    985.24484786	    387.61330836	   -298.46466416	    127.13071977	    -17.29494008	    396.99070331	   -112.13374370	    -53.20181122	    -31.69805178	      1.69246831	     -3.86097857	      0.49694471	    112.13374370	     53.20181122	     31.69805178	    -14.07909948	      2.75793816	     45.17283600	     -4.62184116	      0.00000000	    959.37689303	    601.59807707	     27.92651385	      0.00000000	      0.00000000	      0.00000000	      0.00000000	      0.00000000	      0.00000000	      0.00000000	      0.00000001	      0.00000000
      0.21010788	      9.69846716	      7.13887774	      7.66358920	      3.31760181	      3.89402009	      4.10041778	      0.00000000	    168.16525182	    170.49391636	    329.15660767	    124.55349035	      7.09205177	      5.15636815	      3.67222788	      3.10408512	      5.16403072	      3.06786648	      2.79738146	     94.90806495	      4.60727952	      7.00616048	      5.25156024	     25.33089128	     16.00430969	      4.54710332	      3.29141627	      5.56363921	    111.12332710	     40.74181297	     31.07705737	     55.57412470	      0.00000000	      0.00000000	      0.00000000	      0.00000000	      0.00000000	      0.00000000	     33.75370855	      2.62601972	      4.86934225	     24.14721197	     49.87019967	     11.32287649	      9.69846716	      7.13887774	      7.66358920	      3.31760181	      3.89402009	      4.10041778	     10.59538923	      5.23510177	     10.24315516	      9.04897591	      1.89427202	      7.09205177	      5.15636815	      3.67222788	      3.10408512	      5.16403072	      4.82562650	      2.79738146	      1.95035888	      4.60727952	      7.00616048	      5.25156024	     25.33089128	     16.00430969	      4.54710332	      3.29141627	      5.56363921	     14.17623147	      0.00000000	      0.00000000	      0.00000000	     19.30455185	      9.01746995	     42.90403241	     47.24173093	      4.16024177	      3.62338812	     11.10859232	      5.87716049	     15.80785081	      2.47564052	      7.86298752	      2.51865417	     31.21696027	     31.21696027	     11.45564525	     11.45564525	     29.01338728	     29.01338728	    250.26500398	    160.81286972	     24.03655625	    -13.33620402	      5.90700553	     99.29346696	   -250.26500398	   -160.81286972	    -24.03655625	      4.20622331	     -7.10602481	      3.78837077	      0.21454726	     -0.01569927	     -0.06101007	      0.02402381	     -0.00344932	      0.08540076	     -0.21454726	      0.01569927	      0.06101007	      0.00000849	      0.00463414	     -0.00119395	   -983.37472281	   -385.96248880	    298.64762884	     -8.51828630	     23.20950161	      2.15961770	    983.37472281	    385.96248880	   -298.64762884	    127.16993216	    -17.26356971	    396.21600812	   -116.24300760	    -54.83340054	    -33.11684345	      1.74962122	     -4.01533335	      0.51184521	    116.24300760	     54.83340054	     33.11684345	    -14.69329178	      2.86325900	     46.82912046	     -4.72646401	      0.00000000	    961.09121706	    603.02947035	     27.71484047	     14.10626037	      0.00000000	      0.00000000	      0.00000000	      0.00000000	      0.00000000	      0.00000000	      0.00000001	      0.00000000
